# xmcd
#
# Track frame offsets:
#	150
#	12153
#	24705
#	38525
#	57718
#	69905
#	86550
#	100178
#	113125
#	129025
#	141618
#	155575
#
# Disc length: 2302 seconds
#
# Revision: 1
# Processed by: cddbd v1.5.1PL0 Copyright (c) Steve Scherf et al.
# Submitted via: audiograbber 1.83.01
#
DISCID=9b08fc0c
DTITLE=Country Roads - Keine Eile Trucker!
DYEAR=1900
DGENRE=Country
TTITLE0=Hallo Guten Morgen Deutschland
TTITLE1=Geister Nacht-Express
TTITLE2=Jambalaya
TTITLE3=Ein 30 Tonner Diesel
TTITLE4=Der Country Song
TTITLE5=DIXILAND you made your Stand
TTITLE6=Keine Eile
TTITLE7=Das Ist Schön
TTITLE8=Lay Down Sally
TTITLE9=Time On My Hands
TTITLE10=Nashville Melodie
TTITLE11=Die Letzte Fuhre
EXTD=
EXTT0=Musik und Text: Tom Astor
EXTT1=Musik und Text: Gunter Gabriel
EXTT2=Musik und Text: Hank Williams
EXTT3=Musik und Text: Gunter Gabriel
EXTT4=Musik und Text: Tab
EXTT5=Musik und Text: G. Tylmann, A. Kramm - Berton-Verlag
EXTT6=Musik und Text: K. H. Stehle - Tyrolis-Verlag
EXTT7=Musik und Text: Ulrich Rohrer - Tyrolis-Verlag
EXTT8=Musik und Text: Lurg - Terry
EXTT9=Musik und Text: Don Williams
EXTT10=Musik und Text: Elemer Fuchs - Tyrolis-Verlag
EXTT11=Musik und Text: Elemer Fuchs - Tyrolis-Verlag
PLAYORDER=
